<?xml version="1.0" encoding="UTF-8"?> <svg xmlns="http://www.w3.org/2000/svg" width="298.958" height="56.792" viewBox="0 0 298.958 56.792"><g id="Ebene_2" transform="translate(-1.118 -1.5)"><path id="Pfad_1381" data-name="Pfad 1381" d="M109.9,28.851h36.2V25.81H118.562a12,12,0,0,1-6.31-1.606,5.53,5.53,0,0,1-2.352-4.7h34.649c2.983,0,5.163.459,6.6,1.434s2.123,2.581,2.123,4.933v3.04a6.5,6.5,0,0,1-.688,3.1,6.126,6.126,0,0,1-1.836,2.18,7.626,7.626,0,0,1-2.754,1.262,13.473,13.473,0,0,1-3.442.459H109.9Z" transform="translate(-46.343 -7.674)" fill="#005794"></path><path id="Pfad_1382" data-name="Pfad 1382" d="M219.054,32.707H212.17V8.613H194.1V1.5h43.369V8.556H219.111V32.707Z" transform="translate(-82.241 0)" fill="#005794"></path><path id="Pfad_1383" data-name="Pfad 1383" d="M321.611,28.451v7.285H286.962a9.588,9.588,0,0,1-6.138-1.95,5.865,5.865,0,0,1-2.524-4.7V19.1h43.369v6.31H285.184v3.04Z" transform="translate(-118.139 -7.504)" fill="#005794"></path><path id="Pfad_1384" data-name="Pfad 1384" d="M405.711,28.451v7.285H371.062a9.588,9.588,0,0,1-6.138-1.95,5.865,5.865,0,0,1-2.524-4.7V19.1h43.369v6.31H369.284v3.04Z" transform="translate(-153.995 -7.504)" fill="#005794"></path><path id="Pfad_1385" data-name="Pfad 1385" d="M446.5,8.556V1.5h34.706a13.473,13.473,0,0,1,3.442.459A7.688,7.688,0,0,1,487.4,3.278a6.774,6.774,0,0,1,1.836,2.18,6.663,6.663,0,0,1,.688,3.1V11.6c0,2.352-.688,3.958-2.123,4.933s-3.614,1.434-6.6,1.434H453.441V32.076h-6.884V11.6h36.2V8.556Z" transform="translate(-189.85 0)" fill="#005794"></path><g id="Gruppe_408" data-name="Gruppe 408" transform="translate(63.614 36.78)"><path id="Pfad_1386" data-name="Pfad 1386" d="M110,63.7h13.079v2.639h-5.106V84.466h-2.811V66.339H110Z" transform="translate(-110 -63.298)"></path><path id="Pfad_1387" data-name="Pfad 1387" d="M149.7,84.466V63.7h2.811v8.72h9.006V63.7h2.811V84.466h-2.811V75.058h-9.006v9.408Z" transform="translate(-126.926 -63.298)"></path><path id="Pfad_1388" data-name="Pfad 1388" d="M195.3,84.466V63.7h2.811V84.466Z" transform="translate(-146.367 -63.298)"></path><path id="Pfad_1389" data-name="Pfad 1389" d="M218.5,81.928h7.113c2.467,0,3.5-.918,3.5-2.7,0-4.245-10.441-4.073-10.441-10.211,0-3.385,2.409-5.22,5.679-5.22h6.6v2.639h-7a2.279,2.279,0,0,0-2.524,2.467c0,3.844,10.441,3.844,10.441,10.154,0,3.327-2.065,5.564-5.737,5.564H218.5Z" transform="translate(-156.258 -63.341)"></path><path id="Pfad_1390" data-name="Pfad 1390" d="M287.5,63.7h2.811V78.214c0,2.352,1.262,3.958,3.786,3.958s3.786-1.606,3.786-3.958V63.7h2.811V78.214c0,2.352,1.262,3.958,3.786,3.958s3.786-1.606,3.786-3.958V63.7h2.811V78.214a6.223,6.223,0,0,1-6.138,6.6c-2.352,0-4.188-.631-5.565-2.7-1.377,2.065-3.212,2.7-5.564,2.7a6.223,6.223,0,0,1-6.138-6.6V63.7Z" transform="translate(-185.676 -63.298)"></path><path id="Pfad_1391" data-name="Pfad 1391" d="M346.7,84.168V70.974c0-4.933,3.04-7.974,7.113-7.974s7.113,3.04,7.113,7.974V84.168h-2.811V74.76h-7.458V72.179h7.458V70.859c0-3.27-1.778-5.163-4.3-5.163s-4.3,1.893-4.3,5.163V84.225H346.7Z" transform="translate(-210.915 -63)"></path><path id="Pfad_1392" data-name="Pfad 1392" d="M392.778,84.424V76.278A6.38,6.38,0,0,1,387.5,69.91V63.6h2.811v6.31c0,2.352,1.549,3.729,3.958,3.729,2.352,0,3.9-1.377,3.9-3.729V63.6h2.811v6.31a6.379,6.379,0,0,1-5.392,6.368v8.146Z" transform="translate(-228.31 -63.256)"></path><path id="Pfad_1393" data-name="Pfad 1393" d="M459.254,63.7V77.353c0,2.811,1.377,4.876,4.073,4.876s4.073-2.065,4.073-4.876V63.7h2.811V77.64a6.862,6.862,0,1,1-13.71,0V63.7Z" transform="translate(-257.727 -63.298)"></path><path id="Pfad_1394" data-name="Pfad 1394" d="M498.6,84.211V70.328c0-4.475,3.1-7.228,6.654-7.228a6.591,6.591,0,0,1,6.827,6.654c0,3.671-2.524,6.6-5.851,6.6h-3.786V73.713h2.983A3.721,3.721,0,0,0,509.27,69.7a3.839,3.839,0,0,0-4.016-4.073c-2.237,0-3.9,1.606-3.9,4.245V84.1H498.6Z" transform="translate(-275.677 -63.043)"></path></g><path id="Pfad_1395" data-name="Pfad 1395" d="M109.9,8.556v-.4a5.865,5.865,0,0,1,2.524-4.7,9.588,9.588,0,0,1,6.138-1.95h34.649V8.556H109.9Z" transform="translate(-46.343 0)" fill="#899aa5"></path><path id="Pfad_1396" data-name="Pfad 1396" d="M278.2,8.556v-.4a5.865,5.865,0,0,1,2.524-4.7,9.588,9.588,0,0,1,6.138-1.95h34.649V8.556H278.2Z" transform="translate(-118.097 0)" fill="#899aa5"></path><path id="Pfad_1397" data-name="Pfad 1397" d="M362.4,8.556v-.4a5.865,5.865,0,0,1,2.524-4.7,9.588,9.588,0,0,1,6.138-1.95h34.649V8.556H362.4Z" transform="translate(-153.995 0)" fill="#899aa5"></path><g id="Gruppe_409" data-name="Gruppe 409" transform="translate(53.346 31.789)"><path id="Pfad_1398" data-name="Pfad 1398" d="M338.773,56.021H92.1V54.3H338.773Z" transform="translate(-92.1 -54.3)" fill="#005794"></path></g><rect id="Rechteck_166" data-name="Rechteck 166" width="56.448" height="56.448" transform="translate(1.2 1.5)" fill="#005794"></rect><path id="Pfad_1399" data-name="Pfad 1399" d="M41.2,43c.4.229.746.459,1.2.688A11.251,11.251,0,0,1,41.2,43Z" transform="translate(-17.054 -17.693)" fill="#fff"></path><path id="Pfad_1400" data-name="Pfad 1400" d="M38.9,58.181Z" transform="translate(-16.073 -24.155)" fill="#fff"></path><g id="Gruppe_410" data-name="Gruppe 410" transform="translate(12.903 7.351)"><path id="Pfad_1401" data-name="Pfad 1401" d="M38.949,62.092c-.688,0-7.113-.172-10.842-.287h-.516c-1.606,0-2.581-.057-2.639-.057l.057-1.147,3.1.057c4.933-.057,16.521-1.033,17.9-8.777,1.033-5.622-4.016-8.089-9.867-10.9C29.771,37.941,22.6,34.442,22.6,25.894c0-8.375,9.121-13.194,24.954-13.194h.574a1.488,1.488,0,0,1,1.2.516,1.735,1.735,0,0,1,.4,1.377l-.057.516h-1.95c-2.926,0-12.907.344-16.923,4.532a5.918,5.918,0,0,0-1.721,4.589c.172,4.7,5.335,6.6,11.244,8.777,7.113,2.639,15.259,5.679,15.259,14.628a13.115,13.115,0,0,1-6.2,11.358,19.619,19.619,0,0,1-10.326,3.155C39.179,62.092,38.949,62.092,38.949,62.092Z" transform="translate(-22.026 -12.126)" fill="#fff"></path><path id="Pfad_1402" data-name="Pfad 1402" d="M47.128,12.847H47.7a1.059,1.059,0,0,1,1.09,1.2H47.415c-4.7,0-19.562.688-19.218,9.695.459,11.129,26.5,7.687,26.5,23.405,0,10.441-10.555,13.94-15.948,13.94H38.58c-.688,0-6.941-.172-10.842-.287,5.622-.057,17.038-1.2,18.472-9.236C48.5,39.006,22.8,41.243,22.8,25.468c-.057-9.179,11.244-12.62,24.323-12.62m-22.6,47.9s1.319.057,3.1.057h-.516a19.353,19.353,0,0,1-2.581-.057M47.128,11.7C30.893,11.7,21.6,16.748,21.6,25.468c0,8.892,7.343,12.448,13.883,15.6s10.5,5.335,9.58,10.268C43.743,58.683,32.5,59.6,27.738,59.658l-3.1-.057L24.526,61.9c.057,0,1.09.057,2.7.057h.516c3.786.115,10.154.229,10.842.287h.229c5.564,0,17.095-3.671,17.095-15.087,0-9.351-8.318-12.448-15.6-15.145-5.737-2.123-10.727-3.958-10.9-8.261a5.611,5.611,0,0,1,1.549-4.188c3.844-4.016,13.6-4.36,16.521-4.36h1.319l1.09.057.057-1.09a2.53,2.53,0,0,0-.574-1.778A2.259,2.259,0,0,0,47.7,11.7Z" transform="translate(-21.6 -11.7)" fill="#005794"></path></g><g id="Gruppe_411" data-name="Gruppe 411" transform="translate(2.118 38.099)"><path id="Pfad_1403" data-name="Pfad 1403" d="M29.7,65.3c3.27,9.867-10.1,9.351-26.9,7.63v9.121s17.554.057,19.045.057c.8,0,12.276,0,14.571-7.285C37.908,70,34.409,67.652,29.7,65.3Z" transform="translate(-2.8 -65.3)" fill="#899aa5" stroke="#fff" stroke-width="2"></path></g><rect id="Rechteck_167" data-name="Rechteck 167" width="0.746" height="11.531" transform="translate(1.429 44.811)" fill="#005794"></rect><g id="Gruppe_415" data-name="Gruppe 415" transform="translate(1.888 2.246)"><g id="Gruppe_412" data-name="Gruppe 412" transform="translate(20.709 20.365)"><path id="Pfad_1404" data-name="Pfad 1404" d="M38.5,38.3" transform="translate(-38.5 -38.3)" fill="none"></path></g><g id="Gruppe_413" data-name="Gruppe 413" transform="translate(31.092 25.585)"><path id="Pfad_1405" data-name="Pfad 1405" d="M56.6,47.4" transform="translate(-56.6 -47.4)" fill="none"></path></g><g id="Gruppe_414" data-name="Gruppe 414" transform="translate(0 0)"><path id="Pfad_1406" data-name="Pfad 1406" d="M2.4,57.814V2.8H34.066v.86H3.26V56.953H56.553V25.861h.86V57.814Z" transform="translate(-2.4 -2.8)" fill="#fff"></path></g></g><g id="Gruppe_416" data-name="Gruppe 416" transform="translate(2.29 48.54)"><path id="Pfad_1407" data-name="Pfad 1407" d="M3.1,91.359s17.554.057,19.045.057c.8,0,14.284.057,16.235-7.916" transform="translate(-3.1 -83.5)" fill="none" stroke="#fff" stroke-linecap="round" stroke-width="1"></path></g><g id="Gruppe_417" data-name="Gruppe 417" transform="translate(20.48 1.5)"><path id="Pfad_1408" data-name="Pfad 1408" d="M47.309,28.4l-2.18-.8c-.172-.057-.4-.172-.631-.229-2.868-1.033-7.63-2.7-9.179-6.138a5.74,5.74,0,0,1-.115-4.475c.688-1.893,3.958-6.368,18.873-6.368h.172L45.187,1.5H47.6L59.872,12.744l-5.851-.057c-14.514,0-16.521,4.417-16.751,4.876a3.642,3.642,0,0,0,0,2.7c.975,2.123,4.245,3.557,6.654,4.475A7.61,7.61,0,0,1,44.671,21c3.04-6.081,16.005-5.507,17.439-5.45h.4L71.8,25.192V27.6l-10.1-9.752c-3.844-.115-12.965.344-14.858,4.188a5.265,5.265,0,0,0-.229,4.13Z" transform="translate(-34.808 -1.5)" fill="#fff"></path></g><g id="Gruppe_418" data-name="Gruppe 418" transform="translate(21.567 1.5)"><path id="Pfad_1409" data-name="Pfad 1409" d="M57.869,11.6l-2.983-.057c-13.768,0-17.152,3.9-17.841,5.622-2.123,5.679,6.2,8.2,9.236,9.351a6.944,6.944,0,0,1,.287-4.991C49.322,15.956,62.918,16.7,62.918,16.7l9.81,9.351V1.5H47.6Z" transform="translate(-36.703 -1.5)" fill="#899aa5"></path></g></g></svg> 